HIERARCHY
ROOT Hips
{
  OFFSET -32.5998 29.0326 120.673
  CHANNELS 6 Xposition Yposition Zposition Zrotation Xrotation Yrotation
  JOINT LeftUpLeg
  {
    OFFSET 8.64259 1.95398 -2.38835
    CHANNELS 3 Zrotation Xrotation Yrotation
    JOINT LeftLeg
    {
      OFFSET 43.7702 0 0
      CHANNELS 3 Zrotation Xrotation Yrotation
      JOINT LeftFoot
      {
        OFFSET 40.6238 0 0
        CHANNELS 3 Zrotation Xrotation Yrotation
        JOINT LeftToeBase
        {
          OFFSET 12.7242 0 0
          CHANNELS 3 Zrotation Xrotation Yrotation
          End Site
          {
            OFFSET 0 0 0
          }
        }
      }
    }
  }
  JOINT RightUpLeg
  {
    OFFSET -8.2249 1.95398 -2.59336
    CHANNELS 3 Zrotation Xrotation Yrotation
    JOINT RightLeg
    {
      OFFSET 43.5653 0 0
      CHANNELS 3 Zrotation Xrotation Yrotation
      JOINT RightFoot
      {
        OFFSET 40.6238 0 0
        CHANNELS 3 Zrotation Xrotation Yrotation
        JOINT RightToeBase
        {
          OFFSET 12.7242 0 0
          CHANNELS 3 Zrotation Xrotation Yrotation
          End Site
          {
            OFFSET 0 0 0
          }
        }
      }
    }
  }
  JOINT Spine
  {
    OFFSET 0.165834 0.87714 6.61349
    CHANNELS 3 Zrotation Xrotation Yrotation
    JOINT Spine1
    {
      OFFSET 7.38963 1.71661e-005 0
      CHANNELS 3 Zrotation Xrotation Yrotation
      JOINT Spine2
      {
        OFFSET 11.9445 1.14441e-005 0
        CHANNELS 3 Zrotation Xrotation Yrotation
        JOINT Spine3
        {
          OFFSET 14.7254 4.19617e-005 0
          CHANNELS 3 Zrotation Xrotation Yrotation
          JOINT Spine4
          {
            OFFSET 10.9679 0 0
            CHANNELS 3 Zrotation Xrotation Yrotation
            JOINT RightShoulder
            {
              OFFSET 2.46616 -1.6653 3.69651
              CHANNELS 3 Zrotation Xrotation Yrotation
              JOINT RightArm
              {
                OFFSET 13.0012 0 0
                CHANNELS 3 Zrotation Xrotation Yrotation
                JOINT RightForeArm
                {
                  OFFSET 28.7848 1.62311e-005 0
                  CHANNELS 3 Zrotation Xrotation Yrotation
                  JOINT RightHand
                  {
                    OFFSET 26.5688 1.62095e-005 0
                    CHANNELS 3 Zrotation Xrotation Yrotation
                    End Site
                    {
                      OFFSET 0 0 0
                    }
                  }
                }
              }
            }
            JOINT LeftShoulder
            {
              OFFSET 2.38034 -1.29275 -3.7523
              CHANNELS 3 Zrotation Xrotation Yrotation
              JOINT LeftArm
              {
                OFFSET 16.3182 6.07031e-005 0
                CHANNELS 3 Zrotation Xrotation Yrotation
                JOINT LeftForeArm
                {
                  OFFSET 27.0901 0 0
                  CHANNELS 3 Zrotation Xrotation Yrotation
                  JOINT LeftHand
                  {
                    OFFSET 24.5451 1.51738e-005 0
                    CHANNELS 3 Zrotation Xrotation Yrotation
                    End Site
                    {
                      OFFSET 0 0 0
                    }
                  }
                }
              }
            }
            JOINT Neck
            {
              OFFSET 5.0226 -0.0266342 0
              CHANNELS 3 Zrotation Xrotation Yrotation
              JOINT Head
              {
                OFFSET 6.69364 2.86102e-005 0
                CHANNELS 3 Zrotation Xrotation Yrotation
                End Site
                {
                  OFFSET 0 0 0
                }
              }
            }
          }
        }
      }
    }
  }
}
MOTION
Frames:	14
Frame Time:	0.0416667
-315.034 88.4984 -294.254 -109.197 60.0751 -75.0529 -167.902 0.585339 98.9974 124.53 -72.624 -159.375 -9.55136 -22.6137 -63.2745 -121.346 30.4662 -37.7853 -166.5 29.9459 93.1504 -64.7277 -24.2299 -9.60964 70.002 -9.90251 -3.64855 25.5502 0.0404662 5.15731 3.41989 12.8199 -91.3604 1.27828 6.30875 -2.44843 -10.3802 6.19491 -2.72454 -33.0373 6.75171 -0.43117 -13.0247 6.75172 -0.431181 99.8114 13.9564 -100.397 49.7432 44.4879 -5.17361 -33.9641 -1.58054 -107.925 -4.74635 -0.109174 -2.82415 -94.5094 -31.6402 65.5691 -39.4266 3.82814 -72.3566 58.4382 -5.818 -89.9319 -14.0552 0.549935 -10.6237 26.0445 0.539191 20.9925 23.2259 -8.08518 -4.19616 
-310.7 89.8101 -289.812 -108.642 57.9608 -76.5596 -165.9 -4.15379 97.0419 -79.3842 -69.3453 -7.12775 36.6786 -7.0674 -101.274 -21.07 13.5445 -33.4482 -167.822 29.8013 91.5432 -56.7225 -25.6469 -9.07518 64.2551 -5.95532 -1.90487 23.5484 0.568746 6.0999 2.26532 12.8775 -90.6562 1.13124 4.2723 -1.1325 -10.5334 4.21832 -1.31972 -33.1243 4.4147 0.206281 -13.1116 4.4147 0.206283 99.6811 10.3421 -97.2955 60.2007 34.4212 -3.55225 -33.8181 3.70772 -111.418 -1.20779 -0.011954 -7.46435 -89.6302 -27.149 73.0484 -39.4006 -3.82429 -79.6973 52.5585 -11.3881 -99.6536 -11.221 0.53138 -11.7956 32.9007 4.04873 17.1889 19.526 -4.69568 -6.59461 
-305.757 90.5517 -283.713 -110.327 53.9808 -75.6572 -166.359 -5.82421 91.6595 -66.0917 -2.10721 -0.777474 111.846 9.32576 -11.9243 12.2499 -10.5035 1.57082 -170.873 28.8755 90.6624 -47.884 -28.2945 -8.95489 56.4998 0.695318 -0.282943 19.5573 1.69368 7.51754 0.827731 12.9129 -89.8199 1.04307 1.7199 0.410268 -10.6268 1.73628 0.334144 -33.1689 1.5171 0.90833 -13.1562 1.51711 0.908345 99.4135 2.1254 -95.0115 64.8751 21.8278 -1.78015 -32.2281 11.0733 -116.64 1.38943 -0.125772 -10.6337 -83.2926 -16.5935 83.6732 -35.9227 -13.8057 -81.9096 43.8201 -12.9766 -105.872 -6.66957 -0.0228475 -6.69296 42.5163 6.02941 6.1485 9.14409 1.83922 -6.06262 
-300.719 93.2428 -277.454 -111.768 50.0477 -72.632 -168.395 -6.6896 92.1611 -60.9634 17.6803 -0.0684984 81.9205 17.8 14.2905 17.1461 -4.40618 -0.989969 -175.241 21.896 90.9227 -29.8841 -37.0923 -7.72915 54.1216 3.20567 1.89365 15.5777 3.52798 6.81698 0.20451 12.5601 -89.6095 1.75028 0.558676 0.772487 -9.92076 0.592125 0.747134 -32.4544 0.300693 0.904669 -12.4418 0.300694 0.904662 98.3551 -7.56554 -94.916 60.0615 18.6695 3.55408 -25.9818 11.496 -119.978 1.77423 -0.126713 -9.80782 -80.8055 -5.74793 87.3743 -24.9149 -14.3108 -71.7878 44.0265 -15.3886 -105.748 -7.27183 -0.0147225 -6.1434 44.8376 3.38857 -5.95037 -1.49509 6.27569 -1.28011 
-294.769 95.3984 -271.084 -107.934 46.8883 -72.1984 -169.574 -1.86454 95.2336 -54.6875 10.9271 1.22407 73.8363 8.21644 4.76769 23.1165 -2.37792 0.054402 -175 21.9828 92.3549 -32.3298 -33.6818 -8.41131 60.3074 -0.425904 -0.74582 8.57703 5.82855 8.1242 0.0751712 11.6154 -89.9785 3.64312 0.158784 0.042372 -8.02781 0.160487 0.0353391 -30.563 0.138711 0.0881376 -10.5504 0.138713 0.0881321 96.5676 -18.7554 -96.0631 48.686 22.0411 5.17523 -25.2577 11.6799 -123.109 -3.23701 0.0623385 -9.02136 -81.2841 -4.62644 85.7516 -10.0467 -5.46476 -57.6934 39.6466 -18.3206 -105.012 -6.98599 -0.0732653 -4.79754 41.921 1.38061 -12.9848 -7.03155 7.80056 3.06278 
-287.887 93.6974 -263.388 -106.896 45.4514 -72.6248 -170.614 2.96287 94.7521 -53.916 14.2208 1.37933 76.9436 11.7954 7.17894 37.6637 0.659377 8.79958 -177.119 25.4559 91.6561 -53.1769 -18.0976 -6.39451 67.3547 -3.78926 -1.94161 15.7402 3.08498 7.7978 -0.162995 10.9837 -89.6628 4.90642 -0.187323 0.667578 -6.76469 -0.157755 0.675161 -29.2988 -0.379298 0.580411 -9.28615 -0.379283 0.580421 90.4526 -33.7898 -104.593 30.1601 29.9198 0.198373 -24.0574 9.68633 -125.611 -7.01912 0.0640712 -6.68957 -82.3384 -6.94387 83.0977 -8.1003 8.89628 -37.9549 35.1755 -18.9622 -103.106 -4.49113 -0.0520286 -6.03867 40.1737 -0.958616 -21.8691 -10.3781 9.52928 7.581 
-280.597 91.49 -255 -106.879 44.861 -72.9857 -171.306 11.1538 93.8821 -58.0146 11.3457 1.31293 81.796 14.3146 4.02243 34.6501 0.696305 4.65432 179.716 25.2267 90.329 -75.3054 -10.8288 -5.16288 69.3762 -4.66514 -3.61807 16.5381 2.8739 7.53456 0.282966 10.2748 -89.9135 6.3236 0.601806 0.151581 -5.34717 0.607925 0.124931 -27.8833 0.52842 0.325445 -7.87066 0.52844 0.325453 93.0765 -38.8713 -98.3276 20.099 29.3987 -7.8341 -22.701 11.4996 -129.222 -6.41912 -0.101647 -3.54902 -84.5471 -18.2076 80.9612 -10.9446 21.7431 -24.4777 34.2883 -15.4536 -93.0602 -5.6031 -0.0482181 -5.09166 36.6563 -2.02569 -19.3293 -11.2944 6.54115 7.60867 
-274.662 90.0501 -247.248 -106.651 45.4204 -76.1662 -172.532 18.4082 87.7327 -59.1705 9.51747 0.324353 81.8037 14.4041 5.5346 24.6084 -4.19448 5.32762 177.306 17.7963 86.7488 -86.8186 -7.20269 -5.62359 68.1266 -4.04685 -4.22335 11.6077 4.13914 9.20653 0.931338 9.47076 -89.8462 7.93195 1.92647 0.191463 -3.73757 1.93301 0.106454 -26.2831 1.77986 0.761814 -6.27046 1.77987 0.761803 97.0892 -32.4786 -92.0765 17.4215 29.9762 -11.5611 -21.4649 13.3075 -133.91 -5.01774 -0.0614847 -4.21814 -86.3414 -28.9099 80.0742 -22.6794 23.6502 3.2621 37.8281 -20.6753 -98.676 -10.7627 0.323536 -9.89128 30.6009 -3.53572 -15.4086 -10.464 2.52929 6.06116 
-269.409 91.4471 -240.884 -112.42 45.2366 -72.378 -173.428 17.565 86.8201 -53.3189 8.56614 -0.00820554 75.2223 9.64861 6.32159 19.5225 -5.41698 2.90968 175.319 -1.93091 84.5958 -80.5485 -16.8545 -7.36843 65.1795 -2.53824 -3.32068 15.3259 2.80929 8.97099 2.14531 8.85639 -90.3546 9.18213 4.11997 -0.99721 -2.48281 4.07208 -1.17785 -25.0705 4.22887 0.289343 -5.05787 4.22887 0.28934 99.1036 -16.5535 -90.1303 16.3281 22.8812 -5.10436 -18.7032 15.1723 -138.049 -3.07707 -0.025449 -5.18777 -86.2795 -37.5212 82.1303 -26.0669 26.9073 27.4742 27.9981 -25.677 -113.504 -9.17603 0.335665 -11.5304 17.6929 -5.96692 -8.8128 -7.96714 -3.24701 1.047 
-263.058 94.632 -233.589 -116.504 45.5325 -70.1886 -174.621 14.2612 87.0686 -37.5453 10.5801 -0.672248 61.09 -0.0545653 4.10357 14.2672 -6.54895 0.480578 175.115 -17.5988 86.966 -64.4912 -25.7803 -9.78723 66.4542 -3.39638 -1.73229 19.3063 0.96443 9.99689 2.65152 8.41962 -90.1848 10.0623 5.19984 -0.804442 -1.59857 5.15939 -1.03311 -24.217 5.20056 0.799899 -4.20435 5.20054 0.799892 97.4825 -8.85315 -96.5059 19.2757 11.0099 -2.62879 -24.1876 22.8049 -135.173 0.525989 -0.0299639 -4.86628 -82.6787 -34.5411 88.0813 -29.5806 20.6334 42.5989 27.8282 -30.381 -124.393 -8.7801 0.465137 -14.4094 4.07133 -6.63336 -12.9064 -5.15494 -4.30503 0.598711 
-254.266 96.9887 -225.006 -110.214 45.7001 -76.8431 -176.328 16.9788 87.378 -20.4001 21.0742 -1.17369 51.9301 -5.83532 -2.13586 15.1864 -7.99042 3.73602 174.884 -15.7218 87.6879 -51.2033 -24.6565 -7.27074 68.6028 -5.08558 -1.3968 22.1173 0.0506505 9.67213 2.39255 7.70576 -89.5555 11.4659 4.96791 0.375771 -0.195418 4.97965 0.156199 -22.7992 4.62473 1.8546 -2.78657 4.62474 1.85459 96.2605 -8.90743 -100.366 23.3715 -3.56473 -2.12094 -25.6382 26.1668 -131.569 -0.00817547 -0.0330782 -4.52096 -82.9675 -33.9677 87.4948 -26.8148 12.3368 44.3995 27.2863 -28.9879 -126.739 -6.54378 0.292713 -14.9254 -1.20519 -6.29534 -16.489 -5.4573 -4.08235 1.2298 
-243.846 96.0749 -215.235 -101.916 42.1322 -82.5233 -177.358 29.2657 88.7722 -33.7778 26.2588 -0.421646 62.8774 1.41347 2.1821 19.5148 -7.11191 5.95698 176.439 -3.8698 95.3873 -48.5142 -14.129 -2.88266 69.252 -5.2612 -3.71092 27.6397 -2.55748 12.4429 1.58314 7.47556 -89.493 11.919 3.38712 0.648701 0.252357 3.41238 0.498826 -22.3111 3.0355 1.63751 -2.29844 3.03552 1.6375 94.2353 -15.4824 -103.138 27.2798 -11.1552 4.87667 -27.8753 29.3472 -129.285 -0.182249 -0.0236323 -5.28268 -85.5359 -42.4271 84.2791 -16.241 9.72654 27.755 25.9064 -24.9175 -124.504 -4.39267 0.0207575 -10.0406 9.10913 -6.44607 -10.3939 -10.9185 -3.96893 -1.87541 
-234.518 93.8783 -205.425 -105.726 38.8188 -83.2582 -173.652 31.6632 87.3935 -59.7884 14.2482 -0.406668 78.1008 10.2155 1.01453 15.8954 -9.40494 6.76363 175.255 1.528 92.259 -53.2688 -12.1212 -3.32008 76.3486 -11.0596 -6.67677 31.9897 -3.18035 8.49035 0.714182 8.22721 -89.4275 10.4117 1.68511 0.989512 -1.25846 1.727 0.914378 -23.7964 1.30984 1.45021 -3.78376 1.30983 1.45021 94.9656 -17.6321 -100.4 38.57 -17.8173 12.0729 -36.1576 29.7511 -116.628 -3.42169 -0.0996939 -2.13993 -88.722 -48.0604 80.2582 -7.98644 7.31447 2.26276 24.2504 -22.5741 -123.768 -3.34896 -0.0521748 -8.86564 17.9606 -3.48469 -2.2244 -14.6914 -2.32691 -4.00874 
-225.485 91.9295 -196.239 -106.826 40.5874 -84.3154 -167.951 29.8893 89.7988 -80.8463 10.1922 0.817506 77.8438 9.94026 4.63833 16.1231 -7.29162 3.25133 176.697 10.1919 90.0186 -57.3254 -11.1277 -4.93211 83.2916 -16.0301 -4.03164 25.4638 -0.548076 7.43244 -0.0378424 8.17763 -89.162 10.5146 0.309544 1.639 -1.15729 0.381365 1.62379 -23.6846 -0.197303 1.65625 -3.67193 -0.197288 1.65625 95.3058 -19.5137 -98.9028 49.7606 -16.9533 23.4329 -44.1492 24.1415 -102.15 -4.30913 -0.255011 0.110625 -87.7536 -48.7285 81.8793 -3.93447 -2.4054 -24.4669 20.7227 -19.2947 -126.53 -2.42283 -0.0872755 -8.22279 15.8935 0.717218 -2.07098 -12.1662 1.49513 -3.04526 
